<?xml version="1.0" encoding="iso-8859-1"?>
<!-- Uploaded to: SVG Repo, www.svgrepo.com, Generator: SVG Repo Mixer Tools -->
<svg height="800px" width="800px" version="1.1" id="Layer_1" xmlns="http://www.w3.org/2000/svg" xmlns:xlink="http://www.w3.org/1999/xlink" 
	 viewBox="0 0 512 512" xml:space="preserve">
<circle style="fill:#68533E;" cx="256" cy="256" r="256"/>
<path style="fill:#57442F;" d="M264.132,511.859c127.748-3.989,231.891-101.56,246.177-226.452L363.394,138.492l-5.261,10.007
	l-54.487-54.487L199.111,238.187l-50.507,56.367l85.273,85.273l-46.833,54.943L264.132,511.859z"/>
<polygon style="fill:#C68D6D;" points="324.956,434.769 256,401.153 187.044,434.769 187.044,300.304 324.956,300.304 "/>
<polygon style="fill:#B97850;" points="324.956,300.304 256.288,300.304 256.288,401.294 324.956,434.769 "/>
<path style="fill:#FFD15D;" d="M123.259,216.523c0-13.576,15.603-24.521,19.582-36.771c4.122-12.697-1.926-30.694,5.765-41.262
	c7.768-10.673,26.805-10.445,37.479-18.213c10.568-7.69,16.191-25.91,28.887-30.032c12.25-3.977,27.453,7.327,41.029,7.327
	c13.576,0,28.779-11.304,41.029-7.327c12.697,4.122,18.32,22.342,28.887,30.032c10.673,7.768,29.712,7.54,37.479,18.213
	c7.69,10.568,1.643,28.565,5.765,41.262c3.977,12.25,19.582,23.193,19.582,36.769s-15.603,24.521-19.582,36.771
	c-4.122,12.697,1.926,30.694-5.765,41.262c-7.768,10.673-26.805,10.445-37.479,18.213c-10.568,7.69-16.191,25.91-28.887,30.032
	c-12.25,3.977-27.453-7.327-41.029-7.327c-13.576,0-28.779,11.304-41.029,7.327c-12.697-4.122-18.32-22.342-28.887-30.032
	c-10.673-7.768-29.712-7.54-37.479-18.213c-7.69-10.568-1.643-28.565-5.765-41.262C138.862,241.042,123.259,230.098,123.259,216.523
	z"/>
<path style="fill:#F9B54C;" d="M388.741,216.523c0-13.576-15.605-24.519-19.582-36.769c-4.122-12.695,1.926-30.694-5.765-41.262
	c-7.768-10.673-26.805-10.445-37.479-18.213c-10.568-7.69-16.191-25.91-28.887-30.032c-12.164-3.949-27.238,7.156-40.741,7.313
	v237.927c13.503,0.157,28.577,11.262,40.739,7.313c12.697-4.122,18.32-22.342,28.887-30.032
	c10.673-7.768,29.712-7.539,37.479-18.213c7.69-10.568,1.643-28.565,5.765-41.262C373.136,241.043,388.741,230.098,388.741,216.523z
	"/>
<circle style="fill:#FC6F58;" cx="256" cy="216.523" r="96.099"/>
<path style="fill:#F1543F;" d="M352.099,216.523c0-52.977-42.87-95.935-95.811-96.092v192.184
	C309.229,312.458,352.099,269.5,352.099,216.523z"/>
<circle style="fill:#C1321F;" cx="256" cy="216.523" r="64.06"/>
<path style="fill:#A82116;" d="M320.065,216.523c0-35.287-28.529-63.903-63.778-64.059v128.119
	C291.538,280.426,320.065,251.809,320.065,216.523z"/>
</svg>