<?xml version="1.0" encoding="UTF-8" standalone="no"?>
<!-- Created with Inkscape (http://www.inkscape.org/) -->

<svg
   version="1.1"
   id="svg1"
   width="1200"
   height="900"
   viewBox="0 0 1200 900"
   xmlns="http://www.w3.org/2000/svg"
   xmlns:svg="http://www.w3.org/2000/svg">
  <defs
     id="defs1" />
  <g
     id="g1">
    <path
       style="fill:#000000"
       d="m 102.51051,555.017 c -0.3575,-0.57844 -1.14857,-7.0064 -1.75794,-14.28435 -2.052783,-24.51741 1.53909,-52.10047 9.03297,-69.36679 3.49201,-8.0458 11.67065,-20.6792 16.5391,-25.54764 0.92145,-0.92145 1.70929,-2.04501 1.75076,-2.49679 0.19552,-2.13 19.14109,-16.61505 33.9246,-25.93743 10.37326,-6.54131 35.37778,-16.3888 59.57279,-23.46147 9.81135,-2.86804 20.23404,-6.2739 23.16153,-7.56858 2.92749,-1.29467 6.4764,-2.35395 7.88646,-2.35395 1.41007,0 3.70793,-0.9 5.10635,-2 1.39842,-1.1 3.0997,-2 3.78061,-2 2.58739,0 11.32712,-4.49643 19.99226,-10.28565 10.96478,-7.32563 12.56193,-8.55302 19.36824,-14.8843 3.26078,-3.03321 5.72877,-4.63304 6.28662,-4.07519 0.50511,0.50511 1.18389,6.9544 1.5084,14.33176 0.64289,14.61537 -1.02414,24.96279 -4.80066,29.79824 -1.02443,1.31167 -1.8626,2.84357 -1.8626,3.40421 0,1.96073 -12.39094,12.22716 -16.92499,14.02309 -12.54203,4.96788 -21.48597,6.61297 -52.57501,9.67029 -34.42515,3.38541 -50.02597,7.47695 -69.62734,18.26079 C 153.16138,445.58598 149.9661,448.0339 141,457 c -10.73994,10.73994 -11.32427,11.56506 -19.87656,28.06724 -6.48218,12.50776 -14.99771,42.39182 -12.72677,44.66277 0.70047,0.70046 7.03815,-5.34372 9.17495,-8.75006 1.21532,-1.93738 11.58754,-10.70944 17.92838,-15.16252 C 143.86183,499.94505 185.93588,480 189.96184,480 c 3.92411,0 29.96121,-14.97413 30.01891,-17.2641 0.0106,-0.42025 1.33575,-1.99525 2.9448,-3.5 3.82362,-3.57575 8.58656,-13.08669 10.63463,-21.2359 1.82797,-7.27344 2.32894,-8.08301 5.04074,-8.14583 5.20895,-0.12067 24.27173,1.15973 25.75812,1.73011 2.25921,0.86694 1.82191,2.19922 -5.93799,18.0905 -6.26314,12.82611 -14.29742,24.29334 -20.24523,28.89579 -7.69868,5.95728 -24.34398,12.6386 -39.67582,15.92563 -15.30012,3.28023 -38.63892,10.55147 -46.29573,14.4235 -7.84252,3.96594 -19.24694,11.69254 -24.75183,16.7696 -3.04039,2.80408 -12.22281,14.10075 -20.12219,24.75531 -2.31273,3.11937 -4.45923,5.15571 -4.81974,4.57239 z m 261.49838,-18.30822 c -9.9214,-4.87947 -14.06336,-19.73772 -8.86848,-31.81353 5.84341,-13.58337 28.29806,-15.02773 34.37979,-2.21144 1.4027,2.95598 1.46026,3.71386 0.33615,4.42613 -2.49863,1.58323 -4.77944,0.91309 -6.96819,-2.04735 -1.19445,-1.61557 -3.46641,-3.47368 -5.04881,-4.12914 -3.34123,-1.38398 -10.19218,-0.71367 -12.53705,1.22665 -2.69084,2.22661 -5.26174,9.0645 -5.20349,13.8399 0.13487,11.05643 4.2229,16.29901 12.80891,16.42642 4.17705,0.062 5.44135,-0.38913 8.02522,-2.86351 1.68688,-1.6154 3.06706,-3.4379 3.06706,-4.05 0,-2.38064 2.14719,-3.35756 5.10973,-2.32481 3.42715,1.19471 3.38123,0.93423 0.98759,5.60174 -4.90867,9.57173 -15.92725,12.91633 -26.08843,7.91894 z M 411.5,537.0302 c -4.87824,-2.23001 -9.29842,-7.71001 -11.13132,-13.80028 -1.74941,-5.81284 -1.72331,-8.67274 0.13626,-14.93459 3.40579,-11.46853 15.46873,-17.66323 26.60064,-13.66025 14.58478,5.24461 19.41003,24.49168 9.27999,37.01615 -5.59292,6.91491 -16.41064,9.25313 -24.88557,5.37897 z m 16.15621,-6.12674 c 6.37699,-3.9412 8.67121,-12.6964 5.6025,-21.38032 -2.4514,-6.93704 -6.84996,-9.85446 -13.99321,-9.28123 -3.27037,0.26245 -6.0394,1.14014 -7.37959,2.33908 -2.81844,2.5214 -5.89722,9.76875 -5.84202,13.75192 0.17336,12.5089 12.02254,20.49736 21.61232,14.57055 z m 53.65951,7.39219 c -1.47983,-0.28287 -4.79075,-4.34864 -10.26605,-12.60659 -10.44349,-15.75106 -10.33953,-15.59615 -11.76787,-17.53525 -0.97639,-1.32553 -1.22451,1.48509 -1.25,14.15955 L 458,538.12672 454.75,537.81336 451.5,537.5 451.26818,516.85735 c -0.19244,-17.13641 0.0177,-20.8497 1.23702,-21.86166 3.12563,-2.59405 5.89306,-0.1541 14.46318,12.75171 4.65761,7.01393 9.48358,14.01092 10.72437,15.54887 l 2.25599,2.79627 0.27563,-15.79627 L 480.5,494.5 h 2.5 2.5 v 21.91667 c 0,13.81783 -0.36953,21.98684 -1,22.10658 -0.55,0.10446 -1.98293,0.002 -3.18428,-0.2276 z m 28.71442,-0.75933 c -0.54041,-0.65115 -1.10576,-9.2507 -1.25635,-19.11012 L 508.5,500.5 l -6.1681,0.33729 c -5.47417,0.29935 -6.29762,0.0953 -7.31939,-1.81392 -0.87774,-1.64007 -0.86346,-2.49803 0.0601,-3.61083 0.99055,-1.19353 4.23891,-1.40975 17.8194,-1.18608 L 529.5,494.5 v 3 3 l -6.75,0.29569 -6.75,0.29569 v 18.33773 18.33774 l -2.49365,0.47669 c -1.37151,0.26218 -2.9358,-0.0561 -3.47621,-0.70722 z m 53.1496,0.18026 c -0.58583,-0.70589 -2.01929,-3.50936 -3.18547,-6.22994 -1.16617,-2.72058 -2.65446,-5.28615 -3.30729,-5.70126 -1.52553,-0.97003 -13.83951,-0.98619 -15.29004,-0.0201 -0.60668,0.40408 -2.01589,3.20969 -3.13159,6.23469 -1.7099,4.63607 -2.45897,5.55155 -4.76877,5.82818 -1.50712,0.1805 -3.14759,-0.0792 -3.64547,-0.57707 -0.85516,-0.85516 5.35417,-18.27254 8.70057,-24.4054 0.79658,-1.45986 1.44832,-3.15227 1.44832,-3.7609 0,-0.60863 0.83626,-3.0142 1.85836,-5.34571 1.0221,-2.3315 2.36245,-5.4766 2.97856,-6.9891 0.8595,-2.10999 1.79489,-2.75 4.0192,-2.75 3.20791,0 4.33605,1.04759 5.9229,5.5 0.58807,1.65 3.62877,9.075 6.75713,16.5 7.43108,17.63732 8.36069,20.82115 6.43495,22.03903 -2.03625,1.28775 -3.53893,1.18663 -4.79136,-0.32245 z M 552.09681,510.47085 C 549.41576,503.15888 549.09442,502.70665 548.20928,505 546.36854,509.76931 544,517.07459 544,517.98269 c 0,0.95798 10.3098,1.90482 10.75972,0.98816 0.14284,-0.29104 -1.05547,-4.11604 -2.66291,-8.5 z m 27.52029,27.23843 c -1.47,-1.07488 -1.62828,-3.60755 -1.38814,-22.21125 L 578.5,494.5 l 2.38691,-0.33749 c 1.3128,-0.18562 2.76841,0.26438 3.23469,1 0.46627,0.73562 0.85467,10.43416 0.86309,21.55231 0.0142,18.70024 -0.12419,20.28947 -1.84655,21.21125 -1.29654,0.69389 -2.36564,0.62806 -3.52104,-0.21679 z m 19.11361,0.53883 c -1.63591,-0.37187 -1.74899,-2.03595 -1.5,-22.07515 L 597.5,494.5 l 3,-0.25506 c 2.39727,-0.20381 3.46097,0.39892 5.29443,3 3.73237,5.29505 14.25627,21.03279 16.04806,23.99874 C 625.29372,526.95649 626,524.87653 626,509 c 0,-14.98551 0.002,-15 2.3,-15 4.44682,0 4.7,1.22092 4.7,22.66482 0,18.64729 -0.14673,20.34334 -1.83833,21.24866 -3.64758,1.95212 -5.94552,-0.0571 -14.58821,-12.75543 C 611.83506,518.19612 607.07759,511.375 606.00133,510 l -1.95686,-2.5 -0.0222,14.71482 c -0.0197,13.00631 -0.22543,14.8147 -1.77224,15.57515 -0.9625,0.47319 -2.54618,0.67935 -3.51929,0.45814 z M 660,538 644.5,537.5 V 516 494.5 h 15.5 15.5 v 3 3 l -12.25,0.28078 -12.25,0.28078 V 506.53078 512 l 9.75,0.0136 c 12.70513,0.0178 14.44476,0.49647 14.05381,3.86705 L 674.5,518.5 663,519 l -11.5,0.5 v 6 6 L 664,532 c 12.21646,0.48866 12.50759,0.55365 12.83466,2.86534 0.18407,1.30093 -0.0409,2.65093 -0.5,3 C 675.8756,538.2144 668.525,538.275 660,538 Z m 90.42092,-1.5 c -0.26831,-1.1 -0.36028,-11 -0.20438,-22 l 0.28346,-20 2.36534,-0.33466 c 1.30093,-0.18407 2.74311,0.0431 3.20483,0.50483 0.46173,0.46173 0.90153,8.14821 0.97734,17.08107 0.0758,8.93286 0.37363,17.14318 0.6618,18.24516 0.47378,1.81175 1.35973,2.0036 9.25233,2.0036 7.2337,0 9.01611,0.31793 10.4086,1.85662 2.83673,3.13454 0.10949,3.99739 -13.69559,4.33302 -12.06943,0.29343 -12.7925,0.20125 -13.25373,-1.68964 z m 39.13768,1.59481 c -0.35404,-0.57284 -0.64371,-10.61602 -0.64371,-22.31817 V 494.5 h 2.79256 2.79255 l 0.2695,21.75 c 0.16185,13.06181 -0.10507,21.75 -0.66821,21.75 -0.51574,0 -1.604,0.25568 -2.41835,0.56817 -0.81435,0.3125 -1.77031,0.0995 -2.12434,-0.47336 z m 18.40896,-1.68013 c -1.06486,-2.8008 -1.33954,-34.30478 -0.34256,-39.28968 0.52299,-2.61496 1.08603,-3.125 3.44972,-3.125 2.46061,0 3.76574,1.3616 10.125,10.56307 4.01515,5.80969 8.87528,13.12219 10.80028,16.25 l 3.5,5.68693 0.27727,-15.47727 c 0.1525,-8.5125 0.68205,-15.88205 1.17678,-16.37678 0.49474,-0.49474 2.05747,-0.60889 3.47273,-0.25368 L 843,495.0381 v 19.99452 c 0,21.27622 -0.54223,24.12957 -4.40652,23.1884 -3.30513,-0.80499 -3.91379,-1.53093 -14.28236,-17.03445 L 814.5,506.51659 814,521.89574 c -0.48401,14.88737 -0.57299,15.40609 -2.78244,16.22148 -1.9055,0.70322 -2.44223,0.42205 -3.25,-1.70254 z M 904,536.70878 c -4.70208,-2.30797 -8.75985,-8.28625 -7.6274,-11.23737 0.72689,-1.89425 6.6274,-1.9988 6.6274,-0.11743 0,0.74468 1.10351,2.54468 2.45225,4 2.15909,2.32969 3.2165,2.64602 8.84501,2.64602 4.92322,0 6.77321,-0.42039 8.04775,-1.82874 4.2829,-4.73255 0.45375,-9.0759 -10.34501,-11.7342 -6.12639,-1.50811 -8.1868,-2.54908 -11.25,-5.68376 -4.15292,-4.24984 -4.46251,-5.80377 -2.22377,-11.16182 2.25344,-5.39326 6.54109,-7.58323 14.85574,-7.58774 10.26301,-0.006 15.61803,3.95852 15.61803,11.56136 0,3.88788 -5.47659,2.94178 -7.05867,-1.21942 -1.8533,-4.87453 -12.4143,-6.10245 -15.77202,-1.83379 -3.78382,4.81034 -1.54316,7.04793 10.05047,10.03669 13.31573,3.43271 17.55714,9.56031 13.09473,18.91808 -3.4436,7.2213 -15.98937,9.81927 -25.31451,5.24212 z m 54.50896,0.45943 C 958.22903,536.43573 958,526.63411 958,515.38683 c 0,-18.01008 0.19516,-20.52449 1.63592,-21.07736 0.89976,-0.34527 2.36226,-0.1701 3.25,0.38928 1.37135,0.86409 1.65507,3.74534 1.88664,19.15914 L 965.04512,532 h 9.44225 c 8.07662,0 9.58189,0.2609 10.40767,1.80388 1.84267,3.44306 -0.0234,4.06503 -13.15771,4.38564 -9.89203,0.24146 -12.83254,0.0144 -13.22837,-1.02131 z m 120.06244,0.26036 c -1.9097,-1.90971 -1.9441,-2.53659 -0.2654,-4.83241 2.0854,-2.8519 6.1203,-1.74153 6.5241,1.79533 0.4916,4.30693 -3.1983,6.09749 -6.2587,3.03708 z m -390.94365,-0.95626 c -0.806,-2.10038 -0.82462,-38.79569 -0.0208,-40.89052 0.85989,-2.24085 22.46806,-2.28403 27.80153,-0.0556 4.21365,1.76057 7.584,6.63735 7.584,10.97377 0,4.18293 -3.34723,9.23096 -7.14964,10.7825 l -3.20085,1.30609 2.22541,2.07329 C 717.32502,522.95146 726,535.79838 726,537.14827 726,537.61672 724.2562,538 722.1249,538 c -3.68265,0 -4.12418,-0.36007 -8.89022,-7.25 -6.86767,-9.92812 -8.35743,-11.11687 -14.02287,-11.18955 L 694.5,519.5 l -0.5,9 c -0.49002,8.82031 -0.55235,9.00607 -3.12225,9.3041 -1.70869,0.19815 -2.84096,-0.26583 -3.25,-1.33179 z m 23.90457,-24.04567 c 2.8493,-0.76556 4.91982,-5.71329 3.50062,-8.3651 -1.37147,-2.56261 -4.66634,-3.41388 -13.53294,-3.49639 l -7,-0.0652 -0.29772,6.25 -0.29771,6.25 7.79771,-0.0136 c 4.28875,-0.008 8.71226,-0.25938 9.83004,-0.55971 z M 855,517 v -21.75 c 0,-0.4125 7.0875,-0.75 15.75,-0.75 h 15.75 l 0.31336,3.25 0.31336,3.25 H 874.06336 861 v 5.5 5.5 l 10.75,0.0153 c 5.9125,0.008 11.35187,0.39682 12.08749,0.86309 0.73562,0.46628 1.18562,1.92189 1,3.23469 -0.33121,2.34247 -0.55625,2.39216 -12.08749,2.66865 L 861,519.06347 v 6.43839 6.43839 l 12.75,0.27987 12.75,0.27988 0.31642,2.75 0.31642,2.75 H 871.06642 855 Z m 146.7126,20.37924 C 1001.3207,536.98733 1001,528.64167 1001,518.83333 V 501 h -6.46482 c -5.5081,0 -6.62828,-0.30544 -7.56939,-2.06392 C 984.65402,494.61649 986.84394,494 1004.5,494 c 11.8235,0 16.5178,0.34079 17.2188,1.25 1.0348,1.34237 0.2736,5.90678 -0.9688,5.80902 -0.4125,-0.0325 -3.4398,-0.059 -6.7274,-0.059 h -5.9775 l -0.2725,18.25 -0.2726,18.25 -2.5374,0.29591 c -1.3956,0.16275 -2.8581,-0.0248 -3.25,-0.41667 z m 28.7727,-1.62924 c -0.304,-1.2375 -0.4251,-11.025 -0.269,-21.75 l 0.2837,-19.5 12.1773,0.0163 c 12.0875,0.0162 12.2056,0.039 16,3.08864 5.8485,4.70047 7.784,9.41835 7.7519,18.89504 -0.029,8.43517 -1.565,12.93402 -5.8181,17.03611 -3.7383,3.60555 -7.3223,4.46389 -18.6391,4.46389 -10.5084,0 -10.9554,-0.0876 -11.4867,-2.25 z m 23.3697,-5.175 c 3.4611,-1.78984 5.0315,-5.19593 5.8043,-12.58926 0.496,-4.74615 0.2107,-6.62275 -1.5644,-10.28974 -2.6795,-5.53497 -5.6559,-6.89918 -14.1777,-6.49806 L 1037.5,501.5 l -0.2885,13 c -0.3999,18.02071 -0.6188,17.5 7.3572,17.5 3.6964,0 7.7266,-0.61844 9.2863,-1.425 z M 128,493.2468 c 0,-2.10095 12.89995,-17.15743 21.63071,-25.2468 14.38062,-13.32417 30.90819,-23.19134 50.86929,-30.36961 13.64232,-4.90595 19.24672,-6.28367 20.49269,-5.0377 1.53271,1.53271 -7.9674,15.29631 -14.19181,20.56086 -10.90933,9.22701 -13.1493,10.42415 -36.30088,19.40079 -15.41496,5.97689 -18.11087,7.21306 -23.18018,10.62892 -2.29909,1.54921 -4.44121,2.81674 -4.76025,2.81674 -0.31905,0 -2.71297,1.49906 -5.31983,3.33124 C 129.51963,494.75717 128,495.40115 128,493.2468 Z M 350.4925,464.75 c -0.30009,-1.2375 -0.42116,-27.225 -0.26906,-57.75 L 350.5,351.5 h 15.5 15.5 l 0.26039,44.23853 0.2604,44.23854 39.7396,0.26146 L 461.5,440.5 l 0.27903,13.25 0.27902,13.25 H 406.54808 351.0381 Z M 475.2,465.8 c -1.58633,-1.58633 -1.68595,-81.16145 -0.11574,-92.45082 1.28918,-9.26884 1.96209,-10.73035 7.12872,-15.48307 7.35612,-6.7668 9.95897,-7.11374 57.09894,-7.61089 22.99656,-0.24252 42.90906,-0.16559 44.25,0.17096 L 586,351.0381 V 409.01905 467 h -14.41821 c -7.93002,0 -15.13002,-0.27314 -16,-0.60699 C 554.2488,465.88149 554,463.68797 554,452.44714 v -13.33889 l -22.25,-0.30412 c -12.2375,-0.16727 -23.0375,0.0492 -24,0.48105 -1.54115,0.69148 -1.75,2.39215 -1.75,14.25 V 467 h -14.8 c -10.17778,0 -15.17477,-0.37477 -16,-1.2 z M 554,396 v -18 h -21.09879 -21.09879 l -2.90121,3.10576 L 506,384.21151 V 399.10576 414 h 24 24 z m 45.04708,69.08797 C 598.35376,463.79248 598,444.39999 598,407.68819 c 0,-47.10281 0.21719,-55.62355 1.44374,-56.6415 2.17022,-1.80112 85.51318,-0.90748 91.05626,0.97634 8.94579,3.04024 16.18016,10.36174 18.40592,18.62759 0.66387,2.46543 1.07757,20.97032 1.11523,49.88435 l 0.0599,45.96503 -15.06185,0.27616 c -11.51974,0.21122 -15.16315,-0.024 -15.49257,-1 -0.2369,-0.70189 -0.59586,-19.27616 -0.7977,-41.27616 -0.20184,-22 -0.72794,-40.80414 -1.16911,-41.78699 C 675.73456,378.64684 672.09618,378 651.04966,378 H 631 v 44.42244 44.42244 l -15.45292,0.0998 c -14.37045,0.0928 -15.52627,-0.0373 -16.5,-1.8567 z M 747,465.63366 c -10.74539,-2.39782 -17.46857,-7.7646 -21,-16.76325 L 723.5,442.5 V 406 c 0,-39.89783 -0.029,-39.67393 6.06543,-46.9022 6.86076,-8.13725 15.43904,-9.30158 65.60221,-8.90415 21.26721,0.16849 39.0316,0.67074 39.47643,1.11611 0.44484,0.44538 0.8194,6.52038 0.83236,13.5 L 835.5,377.5 797.4024,378 c -30.25406,0.39706 -38.4378,0.78256 -39.75,1.87244 -1.46258,1.21478 -1.6524,4.50482 -1.6524,28.63922 0,25.35115 0.13423,27.43263 1.91062,29.62756 l 1.91061,2.36078 37.83939,0.5 37.83938,0.5 v 12.5 12.5 l -41.5,0.18049 c -29.73367,0.12931 -43.05939,-0.16749 -47,-1.04683 z m 102.64255,0.67556 C 849.28915,465.95582 849,439.91481 849,408.44032 c 0,-44.88652 0.26954,-57.31848 1.25,-57.65363 0.6875,-0.23501 3.5,-0.36117 6.25,-0.28035 2.75,0.0808 27.1625,0.22495 54.25,0.3203 L 960,351 v 13.5 13.5 h -40.07654 -40.07654 l 0.32654,8.25 0.32654,8.25 28.77378,0.20568 c 15.82558,0.11313 29.21308,0.47718 29.75,0.80902 0.55661,0.344 0.97622,6.38066 0.97622,14.04432 V 423 h -30 -30 v 7.98095 c 0,7.56247 0.12428,8.01214 2.3702,8.57583 1.30362,0.32718 19.2703,0.44826 39.92597,0.26905 L 959.85193,439.5 959.67597,453 959.5,466.5 l -54.60745,0.22589 c -30.03409,0.12423 -54.89659,-0.0633 -55.25,-0.41667 z M 974.2,465.8 c -0.90516,-0.90516 -1.2,-15.15556 -1.2,-58 V 351 h 44.9625 c 42.8136,0 45.2232,0.0975 50.417,2.0408 7.0508,2.63803 9.8387,4.90221 13.1981,10.71871 2.6026,4.50632 2.7603,5.53264 3.1924,20.77667 0.6464,22.80768 -1.315,27.90503 -12.752,33.13982 -3.0151,1.38003 -8.836,3.15087 -12.9353,3.9352 -4.0993,0.78432 -7.5738,1.54658 -7.7211,1.69391 -0.3467,0.34668 9.004,14.10384 19.4688,28.64316 4.5319,6.29656 8.1116,12.02899 7.9547,12.73874 -0.361,1.63375 -29.1783,2.8744 -33.0015,1.4208 -2.392,-0.90944 -11.3765,-12.80985 -26.1172,-34.59369 l -5.8337,-8.62094 -4.1663,0.30341 -4.1664,0.30341 -0.2695,21.75 -0.2695,21.75 h -14.7805 c -10.16261,0 -15.15542,-0.37492 -15.9805,-1.2 z m 70.2159,-67.72625 c 6.1936,-1.01679 7.5841,-2.89167 7.5841,-10.22592 0,-4.64787 -0.4256,-6.16643 -2.1886,-7.80887 -2.0605,-1.9197 -3.4351,-2.03896 -23.5,-2.03896 H 1005 v 9.91667 c 0,6.99766 0.3679,10.06513 1.25,10.42105 2.0418,0.82388 32.8368,0.61088 38.1659,-0.26397 z"
       id="path1" />
    <path
       style="fill:#1a1a1a;stroke-width:1.08043"
       d="m 102.29247,549.87104 c -2.709255,-19.84726 -1.51594,-44.05589 3.07647,-62.41194 5.5168,-22.05084 18.95153,-42.15733 37.28582,-55.80217 25.01443,-18.61636 37.60464,-24.28114 91.25881,-41.06058 10.69627,-3.34508 21.39255,-6.94724 23.7695,-8.00479 13.4588,-5.98809 18.11521,-8.43631 25.93038,-13.63352 4.7539,-3.16142 11.79756,-8.48971 15.65258,-11.84065 l 7.00913,-6.09263 0.92362,3.56435 c 0.50799,1.96039 0.74432,9.88708 0.52519,17.61487 -0.45897,16.18562 -1.9989,20.88691 -9.51112,29.0367 -10.75817,11.67124 -22.13862,15.34126 -60.86746,19.62882 -38.46949,4.25884 -51.06457,7.21644 -69.69282,16.36539 -27.08737,13.3035 -43.42417,33.27609 -54.29337,66.3765 -4.18328,12.73949 -6.65197,26.88081 -4.69267,26.88081 0.51467,0 4.59609,-3.78123 9.0698,-8.40275 4.47371,-4.62151 11.29428,-10.64875 15.15683,-13.39387 10.78287,-7.66341 45.77706,-24.78393 58.34333,-28.54382 6.27915,-1.87875 23.25626,-11.55866 27.96304,-15.94379 5.68754,-5.29888 11.39375,-14.81173 14.1168,-23.53423 1.36687,-4.37836 2.99263,-8.59471 3.61281,-9.36967 0.84071,-1.05055 3.34932,-1.24618 9.86032,-0.76898 14.38536,1.05434 17.91642,1.67522 17.91642,3.1503 0,2.00911 -10.09389,22.33064 -14.55859,29.3101 -10.8559,16.97048 -21.68549,23.28873 -53.76039,31.36514 -45.26947,11.39878 -61.83629,20.36115 -79.70023,43.11645 -5.05102,6.43406 -10.20883,12.93324 -11.4618,14.44263 l -2.27813,2.74434 z"
       id="path2" />
    <path
       style="fill:#00ffff;stroke-width:1.08043"
       d="m 102.26476,545.88836 c -1.1823,-12.51856 -0.75971,-32.76497 0.91897,-44.02762 4.84105,-32.47981 18.70531,-54.92172 45.72198,-74.0096 20.15921,-14.24293 34.56371,-20.56322 81.20332,-35.62973 36.39747,-11.75788 50.97454,-19.06084 69.3048,-34.721 3.34208,-2.85525 6.38079,-4.88706 6.7527,-4.51515 0.37191,0.37191 0.67621,7.31365 0.67621,15.42608 0,19.17781 -1.31503,23.74264 -9.33534,32.40552 -10.65274,11.50624 -21.11316,14.80841 -63.22603,19.95935 -38.43592,4.70121 -49.66268,7.50272 -68.21615,17.02257 -12.85123,6.59402 -23.89413,15.0491 -30.45452,23.31774 -2.69259,3.39372 -5.38664,6.76692 -5.98677,7.49602 -4.16044,5.05448 -14.65038,26.52805 -15.44625,31.61945 -0.14003,0.89581 -0.56154,2.11946 -0.93669,2.71921 -2.51679,4.02359 -6.50298,27.541 -4.66819,27.541 0.43421,0 4.74689,-3.73061 9.58373,-8.29023 4.83684,-4.55962 11.70766,-10.4413 15.26849,-13.07038 7.42096,-5.47915 43.59256,-23.53775 55.65061,-27.78346 8.0596,-2.83782 22.28149,-10.4249 28.81044,-15.36976 5.11742,-3.8758 10.90643,-12.95701 15.46389,-24.25815 l 4.06805,-10.08757 12.17499,0.20573 c 6.8364,0.11552 12.67648,0.7072 13.31864,1.34938 1.43333,1.43332 -1.43015,8.43071 -9.15999,22.38398 -12.38553,22.35733 -22.0109,28.68599 -58.8737,38.7093 -11.96179,3.25251 -23.14426,6.49087 -24.84994,7.19636 -1.70568,0.70549 -3.46589,1.38422 -3.91156,1.5083 -0.44568,0.12407 -1.05342,0.34713 -1.35054,0.49569 -0.29712,0.14856 -0.90487,0.37287 -1.35054,0.49848 -6.065,1.70925 -16.56754,6.66203 -23.19981,10.94057 -9.84586,6.35164 -14.33316,10.69154 -26.43408,25.56575 -5.68044,6.9823 -10.44055,12.69508 -10.57802,12.69508 -0.13746,0 -0.55988,-3.28181 -0.9387,-7.29291 z"
       id="path3" />
    <path
       style="fill:#ec681d;fill-opacity:1;stroke-width:1.08043"
       d="m 129.65186,491.98702 c 0,-1.47201 12.38682,-15.72832 19.47829,-22.41805 14.81459,-13.97533 33.38535,-24.93368 55.01042,-32.46087 10.69119,-3.72136 16.26759,-4.75836 16.26759,-3.02517 0,1.18105 -5.1748,8.75802 -9.02605,13.21599 -8.67752,10.04456 -18.14209,15.78749 -39.83694,24.17236 -14.78296,5.71349 -21.38191,8.97423 -32.27735,15.94921 -8.12301,5.20015 -9.61596,5.90913 -9.61596,4.56653 z"
       id="path4" />
    <path
       style="fill:#ec681d;fill-opacity:1;stroke-width:1.08043"
       d="m 103.3246,549.38367 c -0.37595,-0.9797 -0.68354,-10.40735 -0.68354,-20.95031 0,-29.23174 3.94579,-47.53747 14.1554,-65.67114 6.18032,-10.9771 22.80476,-27.90871 36.1194,-36.78677 18.56066,-12.37606 29.73783,-17.22099 74.51511,-32.29982 36.07316,-12.1477 50.23802,-18.74313 66.03154,-30.74555 6.2901,-4.78021 11.66267,-8.46516 11.93905,-8.18878 0.94947,0.94947 0.40159,29.3537 -0.63465,32.90208 -1.54291,5.28343 -4.91352,10.23209 -10.43717,15.3236 -9.75751,8.99416 -19.94984,11.89232 -60.95639,17.33276 -13.96459,1.85271 -30.64985,4.53362 -37.07835,5.95757 -26.53066,5.87669 -50.5935,20.47985 -65.28832,39.6219 -8.36268,10.89356 -17.46493,31.15683 -21.29533,47.40732 -1.79688,7.62326 -2.20493,17.20567 -0.73267,17.20567 0.5145,0 4.7687,-3.46112 9.45378,-7.69137 4.68508,-4.23026 11.37105,-9.82416 14.85771,-12.43089 6.62335,-4.95183 42.14171,-23.22979 53.13008,-27.34106 10.7091,-4.0068 27.79668,-13.27987 32.57781,-17.6793 5.87116,-5.40245 10.06794,-12.03291 15.01836,-23.72743 l 3.99999,-9.44928 8.21268,0.0119 c 11.1916,0.0162 16.31593,0.95827 16.31593,2.99956 0,2.63301 -10.57462,22.83184 -15.7819,30.14537 -9.02863,12.68056 -19.43505,18.72406 -45.26252,26.2861 -31.59486,9.25068 -42.82848,13.1206 -53.12369,18.30083 -15.09746,7.59657 -21.78163,13.65022 -41.00068,37.13307 -2.73289,3.33917 -3.49699,3.77935 -4.05163,2.33398 z"
       id="path5" />
    <path
       style="fill:#bb0099;fill-opacity:0.466667;stroke-width:1.08043"
       d="m 351.14046,409.48379 v -57.2629 h 15.12605 15.12605 v 44.29772 44.29772 h 39.97599 39.97599 v 12.96518 12.96519 H 406.2425 351.14046 Z"
       id="path6" />
    <path
       style="fill:#bb2299;fill-opacity:0.333333;stroke-width:1.08043"
       d="m 351.14046,409.48379 v -57.2629 h 15.12605 15.12605 v 44.29772 44.29772 h 39.97599 39.97599 v 12.96518 12.96519 H 406.2425 351.14046 Z"
       id="path7" />
    <path
       style="fill:#bb2299;fill-opacity:0.333333;stroke-width:1.08043"
       d="m 477.97905,466.0049 c -2.04632,-0.4029 -2.34269,-1.42858 -2.97119,-10.28295 -0.99712,-14.0475 -0.80232,-59.56138 0.32105,-75.01094 1.05016,-14.4427 2.20459,-17.71017 8.07976,-22.86864 6.55486,-5.75524 8.259,-5.94709 57.07752,-6.42573 l 45.10805,-0.44227 v 57.99217 57.99217 l -14.62603,-0.37612 c -11.52899,-0.29647 -14.84279,-0.71927 -15.64972,-1.99676 -0.56303,-0.89135 -1.03114,-7.09963 -1.04024,-13.79618 l -0.0165,-12.17553 -24.03961,0.29078 -24.03962,0.29078 -0.30239,13.77551 -0.30238,13.77551 -12.6628,-0.14713 c -6.96454,-0.0809 -13.68567,-0.34853 -14.93585,-0.59467 z M 554.2617,395.97839 V 377.07083 H 532.74911 511.2365 l -2.79712,3.32419 c -2.72627,3.23999 -2.79712,3.71892 -2.79712,18.90756 v 15.58337 h 24.30972 24.30972 z"
       id="path8" />
    <path
       style="fill:#bb2299;fill-opacity:0.333333;stroke-width:1.08043"
       d="m 601.66327,466.02748 c -1.04642,-0.27888 -2.02567,-2.08694 -2.41908,-4.46651 -0.85679,-5.18228 -0.88811,-102.65109 -0.0344,-106.91984 l 0.65041,-3.25203 14.20553,-0.44999 c 7.81305,-0.24749 27.87447,-0.13569 44.58094,0.24844 28.39826,0.65297 30.69832,0.85476 35.33667,3.10015 2.7287,1.32094 6.50204,4.15655 8.38521,6.30136 6.60667,7.52458 6.57233,7.24758 7.213,58.1809 l 0.58636,46.61611 -11.29145,0.76962 c -6.2103,0.42329 -13.01214,0.44683 -15.1152,0.0523 l -3.82375,-0.71733 -0.73169,-40.92878 c -0.40244,-22.51082 -1.03273,-41.71323 -1.40065,-42.67202 -1.17557,-3.06349 -5.78446,-3.84666 -26.53619,-4.50917 l -20.29663,-0.64799 v 45.00701 45.00701 l -13.77551,-0.12533 c -7.57653,-0.0689 -14.56666,-0.33619 -15.53361,-0.59389 z"
       id="path9" />
    <path
       style="fill:#bb2299;fill-opacity:0.333333;stroke-width:1.08043"
       d="m 743.30425,464.00679 c -7.1164,-2.19376 -13.13629,-7.84987 -16.62238,-15.61792 l -2.96631,-6.60981 0.35711,-36.40574 c 0.39727,-40.50032 0.49577,-41.08666 8.01058,-47.68476 6.38149,-5.60302 8.30057,-5.81664 56.36045,-6.27373 l 44.56616,-0.42386 1.0821,2.84616 c 0.59516,1.56539 1.08211,7.35731 1.08211,12.87093 v 10.02477 l -37.45082,0.76535 c -20.59795,0.42094 -38.27743,1.20773 -39.28772,1.74842 -1.01029,0.54069 -2.14127,2.82486 -2.51328,5.07592 -0.86324,5.22359 -0.66716,46.42892 0.23799,50.01121 1.7116,6.77394 -0.63731,6.36267 40.95723,7.1711 l 38.0566,0.73966 v 11.71089 11.71089 l -43.4874,-0.0753 c -33.99767,-0.0588 -44.55557,-0.40454 -48.38242,-1.58422 z"
       id="path10" />
    <path
       style="fill:#bb2299;fill-opacity:0.333333;stroke-width:1.08043"
       d="m 977.12462,466.00305 c -3.3832,-0.66473 -3.63525,-5.04781 -3.64584,-63.40056 l -0.009,-51.71924 45.10802,0.49301 c 49.2935,0.53876 50.8084,0.72762 57.9021,7.2189 5.3236,4.87152 6.8424,9.33527 7.5729,22.25718 0.7981,14.1179 -0.5038,25.72385 -3.3217,29.61238 -2.8091,3.87638 -11.9028,8.2928 -21.4481,10.41643 -4.4122,0.9816 -8.0221,2.24409 -8.0221,2.80551 0,1.09841 5.6491,9.6242 18.8353,28.42703 9.8764,14.08314 10.3477,13.40982 -9.6427,13.77685 -11.9622,0.21963 -13.6175,0.0222 -15.7667,-1.8802 -2.8195,-2.49588 -13.9737,-17.41635 -23.599,-31.56736 l -6.7977,-9.994 h -4.7439 -4.7439 v 22.14886 22.14886 l -12.69507,-0.14713 c -6.98229,-0.0809 -13.72429,-0.34936 -14.98222,-0.59652 z m 71.41338,-68.66084 c 3.2757,-1.72184 3.7683,-2.96686 3.7864,-9.56971 0.027,-9.80956 -0.2979,-9.94099 -25.9551,-10.50412 l -21.5674,-0.47337 v 10.87378 10.87377 l 3.5114,0.50483 c 5.9832,0.86021 37.9198,-0.49363 40.2247,-1.70518 z"
       id="path12" />
    <path
       style="fill:#0000d4;fill-opacity:0.333333;stroke-width:1.08043"
       d="m 868.55864,466.01767 -17.93595,-0.40218 -0.69591,-10.50883 c -0.90228,-13.62518 -0.9011,-79.7992 0.002,-93.43199 l 0.69758,-10.53421 h 54.39887 54.39887 v 12.96518 12.96519 H 919.40408 879.3844 l 0.3138,8.91356 0.3138,8.91357 29.17167,0.54022 29.17167,0.54021 0.69306,6.48259 c 0.38119,3.56543 0.74583,9.52131 0.81033,13.2353 l 0.11726,6.7527 h -30.29755 -30.29755 l 0.31556,8.34651 0.31555,8.34651 4.86195,0.90946 c 2.67407,0.50021 20.54172,0.59587 39.70588,0.21258 l 34.84394,-0.69689 v 13.04956 13.04956 l -19.71789,0.004 c -10.84484,0.002 -27.2539,0.17154 -36.46458,0.37681 -9.21069,0.20524 -24.81788,0.1922 -34.68266,-0.029 z"
       id="path13" />
    <path
       style="fill:#0000d4;fill-opacity:0.333333;stroke-width:1.08043"
       d="m 351.14046,409.48379 v -57.2629 h 15.12605 15.12605 v 44.29772 44.29772 h 39.97599 39.97599 v 12.96518 12.96519 H 406.2425 351.14046 Z"
       id="path14" />
    <path
       style="fill:#0000d4;fill-opacity:0.333333;stroke-width:1.08043"
       d="m 490.20619,465.92729 -12.73499,-0.33029 -1.12435,-2.93655 c -1.73167,-4.52272 -0.69317,-90.40472 1.15254,-95.31351 1.83996,-4.89349 7.20232,-10.65353 11.72241,-12.59176 4.02474,-1.72581 14.94308,-2.24691 63.68936,-3.03969 l 32.68308,-0.53154 v 57.82543 57.82544 l -12.69508,-0.65018 c -19.16412,-0.9815 -17.23835,0.5642 -18.14108,-14.56074 l -0.77402,-12.96844 h -24.13862 -24.13862 l -0.30239,13.68714 c -0.17903,8.10329 -0.74317,13.73361 -1.38282,13.80106 -0.59424,0.0627 -6.81118,-0.0347 -13.81542,-0.21637 z m 64.05551,-69.9489 v -18.90756 h -22.07528 -22.07529 l -2.23444,3.13797 c -2.01357,2.8278 -2.23443,4.69674 -2.23443,18.90757 v 15.76958 h 24.30972 24.30972 z"
       id="path15" />
    <path
       style="fill:#0000d4;fill-opacity:0.333333;stroke-width:1.08043"
       d="m 570.61603,465.71297 c -14.69321,-0.81756 -15.26799,-1.26382 -15.28578,-11.86785 -0.007,-3.89753 -0.31326,-8.90965 -0.68159,-11.13804 l -0.66969,-4.05162 h -24.16836 c -18.54108,0 -24.20036,0.31446 -24.30581,1.35054 -0.0756,0.7428 -0.44024,6.69868 -0.81032,13.2353 l -0.67287,11.88475 -12.27033,0.30657 c -8.54901,0.2136 -12.75791,-0.0981 -13.87804,-1.0277 -1.38963,-1.1533 -1.55397,-7.71679 -1.21147,-48.38581 0.3458,-41.06152 0.62167,-47.46416 2.16694,-50.29282 2.04199,-3.73791 6.73383,-8.31489 10.53276,-10.2749 3.38621,-1.74707 32.3688,-3.08968 68.41164,-3.16916 l 27.82113,-0.0613 v 57.2629 c 0,45.18353 -0.28489,57.22593 -1.35054,57.08761 -0.7428,-0.0964 -6.87525,-0.48272 -13.62767,-0.85843 z M 554.2617,395.97839 v -18.90756 h -22.66133 -22.66133 l -1.64839,3.18764 c -1.25598,2.4288 -1.64839,6.92987 -1.64839,18.90756 v 15.71992 h 24.30972 24.30972 z"
       id="path16" />
    <path
       style="fill:#0000d4;fill-opacity:0.333333;stroke-width:1.08043"
       d="m 563.72039,464.66246 c -2.81994,-0.3933 -5.69492,-1.28285 -6.38886,-1.97679 -0.69394,-0.69394 -1.45042,-5.29068 -1.68105,-10.21499 -0.23064,-4.9243 -0.64901,-10.05631 -0.92972,-11.40446 l -0.51037,-2.4512 -24.55418,0.29033 -24.55417,0.29033 -0.25497,5.94238 c -0.14023,3.2683 -0.54519,8.99617 -0.89991,12.72859 l -0.64494,6.78621 -12.60549,-0.30362 -12.60549,-0.30362 -0.672,-7.02281 c -0.75183,-7.85715 -0.088,-78.94253 0.80567,-86.27907 0.72047,-5.9144 7.38268,-13.61925 13.22341,-15.29288 3.52896,-1.0112 58.76867,-3.10902 84.15192,-3.1958 l 9.994,-0.0342 v 38.723 c 0,21.29765 -0.31945,46.82286 -0.70989,56.72269 l -0.70989,17.99969 -7.66346,-0.14436 c -4.2149,-0.0794 -9.97068,-0.46615 -12.79061,-0.85945 z m -9.45869,-68.68407 v -18.90756 h -23.12359 -23.1236 l -1.18613,3.40252 c -0.65237,1.87139 -1.18612,10.37979 -1.18612,18.90756 v 15.50504 h 24.30972 24.30972 z"
       id="path17" />
    <path
       style="fill:#0000d4;fill-opacity:0.333333;stroke-width:1.08043"
       d="m 567.94395,464.55754 c -4.65664,-0.44357 -9.01533,-1.35521 -9.68598,-2.02587 -0.67066,-0.67064 -1.72262,-6.1956 -2.33771,-12.27768 l -1.11834,-11.05831 -24.99948,-0.28973 -24.99948,-0.28972 -0.78319,13.0351 -0.7832,13.03509 -12.03245,-0.73436 c -6.61785,-0.40389 -12.27555,-0.9552 -12.57267,-1.22511 -0.29712,-0.2699 -0.52279,-21.23309 -0.50148,-46.58484 0.0339,-40.39404 0.25534,-46.49769 1.79043,-49.35784 2.25736,-4.20588 7.21322,-9.15547 10.37303,-10.35992 2.75714,-1.05096 35.8161,-2.70483 71.96605,-3.60032 l 23.66403,-0.58619 -0.75698,52.66259 c -0.41636,28.96443 -1.03877,54.48582 -1.38317,56.71422 -0.70859,4.58494 0.006,4.45222 -15.83941,2.94289 z M 554.2617,395.97839 v -18.90756 h -23.25603 -23.25603 l -1.05369,2.77141 c -0.57953,1.52428 -1.05369,10.03269 -1.05369,18.90757 v 16.13614 h 24.30972 24.30972 z"
       id="path18" />
    <path
       style="fill:#0000d4;fill-opacity:0.333333;stroke-width:1.08043"
       d="m 492.67707,463.85142 c -3.86254,-0.18545 -8.60294,-0.60431 -10.53421,-0.93078 l -3.51141,-0.59359 v -44.65392 c 0,-24.55966 0.30541,-46.18097 0.67869,-48.04736 0.37328,-1.86639 2.4396,-5.37282 4.59184,-7.79208 2.99812,-3.37009 5.05289,-4.61042 8.7873,-5.30427 4.38518,-0.81476 32.23843,-2.15192 77.09792,-3.70128 l 16.0657,-0.55487 -0.68349,41.30034 c -0.37592,22.71519 -0.97845,48.05237 -1.33894,56.30485 l -0.65544,15.00451 -11.33669,-0.57859 c -7.49261,-0.3824 -11.83903,-1.08092 -12.81813,-2.06002 -0.84473,-0.84474 -2.03881,-6.23213 -2.77832,-12.53516 l -1.2969,-11.05374 h -25.0946 -25.09459 l -0.64548,8.91357 c -0.35502,4.90246 -0.76331,10.61126 -0.90731,12.68623 -0.29075,4.18934 -0.0296,4.10013 -10.52594,3.59616 z M 554.2617,395.97839 V 377.07083 H 530.62725 506.9928 l -0.67527,3.37635 c -0.3714,1.85699 -0.67527,10.3654 -0.67527,18.90756 v 15.53121 h 24.30972 24.30972 z"
       id="path19" />
    <path
       style="fill:#0000d4;fill-opacity:0.333333;stroke-width:1.08043"
       d="m 351.14046,409.48379 v -57.2629 h 15.12605 15.12605 v 44.29772 44.29772 h 39.97599 39.97599 v 12.96518 12.96519 H 406.2425 351.14046 Z"
       id="path20" />
    <path
       style="fill:#0000d4;fill-opacity:0.333333;stroke-width:1.08043"
       d="m 351.14046,409.48379 v -57.2629 h 15.12605 15.12605 v 44.29772 44.29772 h 39.97599 39.97599 v 12.96518 12.96519 H 406.2425 351.14046 Z"
       id="path21" />
    <path
       style="fill:#0000d4;fill-opacity:0.333333;stroke-width:1.08043"
       d="m 351.14046,409.48379 v -57.2629 h 15.12605 15.12605 v 44.29772 44.29772 h 39.97599 39.97599 v 12.96518 12.96519 H 406.2425 351.14046 Z"
       id="path22" />
    <path
       style="fill:#0000d4;fill-opacity:0.333333;stroke-width:1.08043"
       d="m 351.14046,409.48379 v -57.2629 h 15.12605 15.12605 v 44.29772 44.29772 h 39.97599 39.97599 v 12.96518 12.96519 H 406.2425 351.14046 Z"
       id="path23" />
    <path
       style="fill:#0000d4;fill-opacity:0.333333;stroke-width:1.08043"
       d="m 614.60039,465.94077 c -9.1299,-0.24747 -12.93503,-0.75641 -13.84399,-1.85164 -0.91442,-1.10181 -1.25579,-16.31829 -1.26199,-56.25219 -0.005,-30.10801 0.30952,-55.06008 0.69819,-55.44905 1.19494,-1.19585 43.01544,-1.45343 66.97427,-0.41251 19.80606,0.86051 23.25779,1.27721 27.16482,3.27945 5.20847,2.66919 11.73234,9.85593 12.74847,14.0438 0.96073,3.95953 3.03676,94.29314 2.18665,95.14716 -1.03576,1.04055 -28.59018,1.51801 -28.62559,0.49601 -0.0171,-0.4929 -0.48087,-19.37157 -1.03065,-41.9526 -0.96107,-39.47339 -1.0851,-41.1258 -3.21687,-42.85562 -2.36727,-1.92091 -7.98238,-2.5563 -31.6458,-3.58093 l -13.77551,-0.59649 v 45.39527 c 0,42.60181 -0.11635,45.38097 -1.89076,45.16294 -1.03991,-0.12778 -7.55647,-0.38589 -14.48124,-0.5736 z"
       id="path24" />
    <path
       style="fill:#0000d4;fill-opacity:0.333333;stroke-width:1.08043"
       d="m 604.5018,464.72131 -3.2413,-0.68929 -0.67793,-11.33774 c -0.93749,-15.67864 -1.08467,-73.52938 -0.22502,-88.44938 l 0.70787,-12.28572 42.77461,0.5581 c 26.43762,0.34494 44.24586,1.01225 46.62674,1.7472 4.72879,1.45972 12.36421,7.84244 14.63523,12.23409 1.89788,3.6701 3.55321,38.74047 3.62257,76.74873 l 0.0389,21.33853 h -14.04562 -14.04562 l -0.0538,-15.93637 c -0.11325,-33.58158 -1.78026,-66.31265 -3.46303,-67.99542 -2.53021,-2.53022 -8.78637,-3.48033 -28.08586,-4.26535 l -18.09724,-0.73611 -0.004,31.23133 c -0.002,17.17724 -0.32054,37.43032 -0.70695,45.00685 l -0.70257,13.77551 -10.9077,-0.12783 c -5.99923,-0.0703 -12.36628,-0.43802 -14.14899,-0.81713 z"
       id="path25" />
    <path
       style="fill:#0000d4;fill-opacity:0.333333;stroke-width:1.08043"
       d="m 611.54555,464.65466 -9.16274,-0.60904 -0.8623,-5.16786 c -1.01411,-6.07766 -0.5925,-105.0658 0.45193,-106.10909 0.39157,-0.39114 20.42433,-0.24193 44.51724,0.33158 41.24271,0.98173 44.01368,1.17196 47.3673,3.25171 6.98192,4.32984 10.81778,9.36366 11.82992,15.52445 0.82589,5.02713 2.98481,65.44784 3.05205,85.41651 l 0.0246,7.29291 h -14.04562 -14.04562 l -0.004,-24.03961 c -0.005,-33.69831 -1.6457,-58.04449 -4.07365,-60.46209 -2.07666,-2.0678 -14.38154,-3.69184 -33.85908,-4.46882 l -11.46597,-0.4574 -0.74436,41.74277 c -0.4094,22.95853 -1.0166,43.32291 -1.34935,45.25418 -0.67853,3.93823 0.818,3.72605 -17.63048,2.4998 z"
       id="path26" />
    <path
       style="fill:#0000d4;fill-opacity:0.333333;stroke-width:1.08043"
       d="m 606.12245,463.78956 c -1.4856,-0.27611 -3.05828,-1.06073 -3.49486,-1.74363 -0.43658,-0.68288 -0.80123,-25.42978 -0.81033,-54.99311 l -0.0165,-53.7515 26.7407,0.0601 c 14.70738,0.0331 34.90394,0.4465 44.88123,0.91872 17.89291,0.84685 18.20264,0.90342 22.68908,4.14445 8.44257,6.09896 9.21723,9.01074 10.42213,39.17441 0.58156,14.55882 1.30086,35.58673 1.59845,46.72869 l 0.54107,20.2581 h -14.00056 -14.00055 l -0.004,-28.90156 c -0.004,-33.93226 -1.40419,-52.84552 -4.11588,-55.60933 -2.20305,-2.24539 -11.66755,-3.67726 -31.08913,-4.70345 l -14.14028,-0.74713 -0.71236,18.78026 c -0.3918,10.32914 -0.71385,25.38979 -0.71567,33.46812 -0.002,8.07833 -0.32029,19.86854 -0.70771,26.20048 l -0.7044,11.51261 -9.82981,-0.14713 c -5.4064,-0.0809 -11.0453,-0.37304 -12.53089,-0.64914 z"
       id="path27" />
    <path
       style="fill:#0000d4;fill-opacity:0.333333;stroke-width:1.08043"
       d="m 609.36375,463.62166 -5.94238,-0.65647 -0.69592,-9.72389 c -0.38276,-5.34814 -0.7474,-30.02251 -0.81033,-54.83194 l -0.1144,-45.10804 17.01681,0.0412 c 34.05501,0.0824 71.19179,1.86309 74.46129,3.57035 4.03549,2.10725 8.58654,6.99696 10.00379,10.74822 1.57733,4.17498 3.07912,26.74213 3.82577,57.48899 0.34632,14.2617 0.8991,28.96909 1.2284,32.68307 l 0.59872,6.7527 h -14.13162 -14.13161 l -0.0187,-30.5222 c -0.0167,-27.27086 -1.07709,-47.57395 -2.76368,-52.91708 -0.32407,-1.02666 -2.38312,-2.34591 -4.57568,-2.93166 -5.08874,-1.35948 -25.60728,-3.30285 -34.88469,-3.30402 l -7.12873,-9.1e-4 -0.70441,11.51262 c -0.38742,6.33193 -0.76837,20.79622 -0.84654,32.14285 -0.0782,11.34664 -0.44283,26.22148 -0.81033,33.05522 l -0.66818,12.42497 -6.48259,0.11625 c -3.56543,0.0639 -9.15667,-0.17917 -12.42497,-0.54021 z"
       id="path28" />
    <path
       style="fill:#0000d4;fill-opacity:0.333333;stroke-width:1.08043"
       d="m 779.53181,464.62727 c -34.11278,-0.5565 -35.84691,-0.6847 -40.11019,-2.96525 -5.57051,-2.97982 -9.73849,-7.85258 -12.99677,-15.19446 -2.5178,-5.67336 -2.52446,-5.8078 -1.90157,-38.35535 0.74114,-38.72587 1.29261,-43.06123 6.1236,-48.14035 6.61764,-6.95755 6.48946,-6.93973 56.44005,-7.84495 24.95363,-0.45221 45.58228,-0.61017 45.84143,-0.35102 0.75982,0.75983 2.70431,23.03562 2.06649,23.67345 -0.31955,0.31954 -17.54831,1.06576 -38.28612,1.65826 -36.7172,1.04905 -37.7564,1.13872 -39.66175,3.42237 -1.79595,2.15252 -1.92904,4.58805 -1.62065,29.65842 0.28998,23.57451 0.57839,27.55548 2.10692,29.08234 1.70609,1.70423 13.66017,2.28476 75.20985,3.65244 2.36323,0.0525 2.43097,0.37015 2.43097,11.39856 v 11.34454 l -9.994,-0.22868 c -5.4967,-0.12576 -26.03841,-0.49041 -45.64826,-0.81032 z"
       id="path29" />
    <path
       style="fill:#0000d4;fill-opacity:0.333333;stroke-width:1.08043"
       d="m 790.49213,464.42515 c -23.87699,-0.49788 -44.9631,-1.41002 -47.33014,-2.04739 -5.8299,-1.56983 -11.77581,-7.24141 -15.44273,-14.73023 l -3.06088,-6.25114 0.65075,-34.59375 c 0.38205,-20.30925 1.15718,-36.4399 1.87719,-39.06468 1.90627,-6.94928 7.88269,-12.09842 15.47672,-13.33439 3.41441,-0.55571 25.06334,-1.34965 48.10873,-1.76432 l 41.9007,-0.75394 0.70119,5.84006 c 0.68712,5.72286 0.98329,17.09605 0.44987,17.27542 -0.14856,0.05 -16.70469,0.74005 -36.79139,1.53354 -29.96413,1.18368 -36.99607,1.7538 -39.16567,3.17538 l -2.64438,1.73266 0.0159,26.71579 c 0.0115,19.33089 0.39277,27.46243 1.37922,29.41687 1.81691,3.59982 4.64625,3.9113 44.67924,4.91879 l 32.56899,0.81965 0.64242,3.88348 c 0.91862,5.55333 0.81663,18.50118 -0.14414,18.29772 -0.44568,-0.0944 -20.18791,-0.57566 -43.87162,-1.06952 z"
       id="path30" />
    <path
       style="fill:#0000d4;fill-opacity:0.333333;stroke-width:1.08043"
       d="m 770.70026,463.467 c -12.58245,-0.42393 -24.64477,-1.10238 -26.80516,-1.50767 -5.36387,-1.00627 -11.93216,-7.22843 -15.87431,-15.03778 l -3.25563,-6.44937 1.13437,-36.11488 c 1.11305,-35.43572 1.18441,-36.20024 3.7944,-40.65386 2.60554,-4.44602 4.64628,-6.00915 10.71816,-8.20969 3.72595,-1.35033 90.4187,-3.74544 91.56659,-2.52975 0.45574,0.48264 0.99648,5.49638 1.20167,11.14164 l 0.37307,10.26411 -16.20648,0.76953 c -46.72543,2.21866 -57.84619,3.02057 -59.92919,4.32142 -2.11455,1.32056 -2.19566,2.39492 -2.19566,29.08286 0,25.02229 0.18776,27.94353 1.93475,30.10096 1.75289,2.16473 3.35243,2.47567 17.0168,3.30797 8.29514,0.50525 21.88878,0.94596 30.20811,0.97935 8.31933,0.0334 18.34273,0.36458 22.27423,0.73597 l 7.14818,0.67525 0.5932,7.1502 c 0.32626,3.93261 0.3347,8.48723 0.0188,10.12139 l -0.57442,2.97118 -20.13215,-0.17402 c -11.07268,-0.0957 -30.42688,-0.52088 -43.00932,-0.94481 z"
       id="path31" />
    <path
       style="fill:#0000d4;fill-opacity:0.333333;stroke-width:1.08043"
       d="m 783.31333,463.43836 c -40.38868,-1.09984 -41.23379,-1.2169 -46.97256,-6.50671 -2.52159,-2.32432 -6.09693,-7.06325 -7.94519,-10.53095 l -3.36048,-6.3049 1.02625,-30.70216 c 1.22899,-36.76731 1.69493,-41.52557 4.51733,-46.13191 4.14516,-6.76518 7.5302,-7.60587 35.60801,-8.84345 13.87643,-0.61163 34.28241,-1.11315 45.34661,-1.1145 l 20.11675,-0.002 0.66968,4.05162 c 0.36833,2.22839 0.67504,6.80576 0.68158,10.17192 l 0.0119,6.12031 -7.83314,0.59583 c -4.30822,0.3277 -20.80572,1.30675 -36.66111,2.17565 -15.85539,0.86891 -29.83349,2.11795 -31.06243,2.77567 -2.17013,1.16141 -2.23444,1.99632 -2.23444,29.00865 0,30.78713 0.19053,31.7251 6.71394,33.05171 1.95259,0.39709 18.33801,1.19789 36.41205,1.77957 21.5099,0.69225 33.37413,1.48272 34.34473,2.28824 1.08534,0.90075 1.39944,3.57553 1.17172,9.97789 l -0.31111,8.74724 -9.72389,0.11563 c -5.34814,0.0636 -23.58043,-0.2617 -40.5162,-0.72289 z"
       id="path32" />
    <path
       style="fill:#0000d4;fill-opacity:0.333333;stroke-width:1.08043"
       d="m 761.16447,462.37371 c -8.91357,-0.43518 -17.46377,-1.28861 -19.00044,-1.89651 -3.94778,-1.56172 -8.87327,-6.7772 -13.22258,-14.00104 l -3.7329,-6.20005 0.89388,-25.39016 c 1.62188,-46.0685 2.13088,-49.69314 7.69811,-54.81933 1.44543,-1.33093 5.1531,-2.89755 8.24546,-3.48401 5.95763,-1.12984 55.95706,-3.25251 77.03778,-3.27056 l 12.54117,-0.0107 0.69412,6.64108 c 1.30879,12.52181 1.08494,13.88708 -2.27705,13.88754 -5.08379,7.1e-4 -57.72211,3.17148 -64.55583,3.88864 -11.07469,1.16224 -10.2641,-1.22698 -10.2641,30.25361 0,17.37722 0.4241,28.37647 1.14612,29.72559 0.63037,1.17785 2.34302,2.59661 3.80589,3.15279 1.46286,0.55618 14.9252,1.49405 29.9163,2.08417 14.99109,0.59011 30.72797,1.36373 34.97083,1.71916 7.53656,0.63136 7.72937,0.7217 8.36929,3.92129 0.36026,1.80127 0.3468,5.89745 -0.0299,9.10262 l -0.68492,5.82759 -27.67238,-0.17022 c -15.2198,-0.0936 -34.96529,-0.52629 -43.87885,-0.96147 z"
       id="path33" />
    <path
       style="fill:#0000d4;fill-opacity:0.333333;stroke-width:1.08043"
       d="m 768.57214,462.37504 c -11.9702,-0.43295 -23.48525,-1.35524 -25.58899,-2.04954 -4.33054,-1.42921 -9.86319,-7.09555 -14.26944,-14.61425 l -2.98777,-5.09823 0.74558,-27.17926 c 0.87592,-31.93086 2.16351,-45.29754 4.80022,-49.83191 3.29825,-5.67203 7.68207,-6.89102 29.00691,-8.06578 31.0645,-1.71132 70.23954,-2.5694 70.86555,-1.55223 0.31754,0.51597 0.74642,5.0666 0.95307,10.11251 l 0.37572,9.17439 -30.2521,1.80172 c -16.63866,0.99095 -33.14546,2.12427 -36.68178,2.51849 -11.13004,1.24074 -10.31702,-1.19425 -10.31702,30.89954 v 28.10233 l 2.65197,2.65197 c 1.45858,1.45858 3.76801,2.6539 5.13205,2.65626 8.36204,0.0145 68.22961,3.34642 69.03143,3.84197 0.53662,0.33165 0.97567,4.46386 0.97567,9.18269 v 8.57969 l -21.33854,-0.17158 c -11.73619,-0.0944 -31.13233,-0.52583 -43.10253,-0.95878 z"
       id="path34" />
    <path
       style="fill:#0000d4;fill-opacity:0.333333;stroke-width:1.08043"
       d="m 850.82037,462.33405 c -0.95488,-4.34752 -0.95488,-103.51386 0,-107.86138 l 0.73187,-3.33221 h 53.93577 53.93576 v 12.96518 12.96519 h -39.97599 -39.97599 v 9.18367 9.18368 l 12.15486,0.004 c 6.68517,0.002 19.80461,0.32088 29.15431,0.70866 l 16.99945,0.70505 0.50074,3.34297 c 0.27541,1.83863 0.74575,7.59717 1.0452,12.79675 l 0.54445,9.45378 h -30.1995 -30.19951 v 8.57726 8.57725 l 5.02334,0.7533 c 2.76284,0.41431 20.75204,0.52053 39.97599,0.23604 l 34.95265,-0.51726 v 12.79535 12.79535 h -53.93576 -53.93577 z"
       id="path35" />
    <path
       style="fill:#0000d4;fill-opacity:0.333333;stroke-width:1.08043"
       d="m 851.00212,455.7764 c -0.91007,-12.82113 -0.91007,-81.92495 0,-94.74607 l 0.70201,-9.88987 h 53.85982 53.85982 v 12.96518 12.96519 h -39.97599 -39.97599 v 9.18367 9.18368 l 6.21248,0.0739 c 16.45905,0.19571 51.06643,1.74285 51.6318,2.30822 0.35066,0.35067 0.92234,6.03558 1.27039,12.63314 l 0.63282,11.99557 h -29.87374 -29.87375 v 8.52786 c 0,6.77961 0.35036,8.66231 1.70901,9.18368 0.93996,0.36069 18.92916,0.65581 39.97599,0.65581 h 38.26698 v 12.42497 12.42497 h -53.85982 -53.85982 z"
       id="path36" />
    <path
       style="fill:#0000d4;fill-opacity:0.333333;stroke-width:1.08043"
       d="m 851.7027,462.69508 c -1.04333,-3.87755 -1.04333,-104.70589 0,-108.58344 l 0.79945,-2.97118 h 53.46081 53.46081 v 12.96518 12.96519 h -39.97599 -39.97599 v 9.0797 9.07971 l 11.07443,0.62063 c 6.09093,0.34135 18.85354,0.91423 28.36134,1.27307 9.50781,0.35884 17.59385,0.97718 17.96899,1.37409 0.37513,0.39691 1.0154,5.94825 1.4228,12.3363 l 0.74073,11.61465 H 909.21224 879.3844 l 0.3138,8.91357 0.3138,8.91356 39.70589,0.28342 39.70588,0.28342 v 12.41166 12.41166 h -53.46081 -53.46081 z"
       id="path37" />
    <path
       style="fill:#0000d4;fill-opacity:0.333333;stroke-width:1.08043"
       d="m 852.05582,462.28992 c -0.88099,-4.40495 -0.88099,-103.36817 0,-107.77311 l 0.67527,-3.37635 h 53.34634 53.34634 v 12.96518 12.96519 h -39.97599 -39.97599 v 9.07402 9.07402 l 7.29292,0.62752 c 4.0111,0.34513 15.07202,0.90243 24.57983,1.23844 9.5078,0.33601 19.09567,0.87255 21.30637,1.19232 4.53766,0.65634 4.54146,0.66689 5.69592,15.79848 l 0.63884,8.37335 h -29.75694 -29.75694 v 9.18367 9.18368 h 39.97599 39.97599 v 12.42497 12.42497 h -53.34634 -53.34634 z"
       id="path38" />
    <path
       style="fill:#0000d4;fill-opacity:0.333333;stroke-width:1.08043"
       d="m 852.07468,459.02518 c -0.90305,-8.63996 -0.90305,-92.60368 0,-101.24364 l 0.69413,-6.64108 h 53.32748 53.32748 v 12.96518 12.96519 h -39.97599 -39.97599 v 9.06343 9.06343 l 3.5114,0.59899 c 1.93128,0.32944 12.50601,0.93213 23.4994,1.33931 10.9934,0.40718 22.14539,1.04423 24.78221,1.41567 5.56986,0.78461 5.95927,1.66106 6.89745,15.52397 l 0.56667,8.37335 h -29.62856 -29.62857 v 9.18367 9.18368 h 39.97599 39.97599 v 12.42497 12.42497 h -53.32748 -53.32748 z"
       id="path39" />
    <path
       style="fill:#0000d4;fill-opacity:0.333333;stroke-width:1.08043"
       d="m 989.36585,465.93952 c -12.28793,-0.33049 -12.76943,-0.43311 -13.71618,-2.92327 -0.53967,-1.41942 -1.32769,-27.19227 -1.75118,-57.27301 l -0.76998,-54.69226 36.09479,0.60338 c 59.893,1.00121 60.9014,1.12901 67.7786,8.58993 5.4862,5.95182 6.1314,8.97276 6.1314,28.71129 0,13.82727 -0.2594,16.11016 -2.2092,19.44778 -2.7223,4.65974 -10.1898,8.87373 -20.8845,11.78531 -4.3822,1.19303 -8.2638,2.46534 -8.6258,2.82735 -0.9264,0.9264 2.3835,6.39628 14.3186,23.66216 5.7079,8.25743 10.378,15.60107 10.378,16.31921 0,1.76451 -6.0526,2.64271 -18.3122,2.65698 l -10.2091,0.0119 -4.9916,-5.31679 c -2.7455,-2.92423 -10.0632,-12.62365 -16.2616,-21.55427 l -11.2699,-16.23748 -5.132,-0.0544 -5.1321,-0.0544 v 22.14886 c 0,17.12271 -0.3065,22.09613 -1.3505,21.91653 -0.7428,-0.12778 -7.0813,-0.38647 -14.08555,-0.57485 z m 59.49485,-68.58112 c 2.8122,-1.34788 2.94,-1.76049 2.94,-9.4931 v -8.08397 l -3.7815,-1.20751 c -2.0798,-0.66414 -12.6546,-1.48661 -23.4994,-1.82773 l -19.7179,-0.62022 v 11.09673 c 0,6.1032 0.3647,11.48255 0.8103,11.9541 1.3306,1.40783 39.9008,-0.21378 43.2485,-1.8183 z"
       id="path40" />
    <path
       style="fill:#0000d4;fill-opacity:0.333333;stroke-width:1.08043"
       d="m 979.23301,464.91574 c -1.28679,-0.25094 -2.62912,-1.21068 -2.98296,-2.13276 -0.64455,-1.67968 -3.15265,-110.622 -2.55695,-111.0646 0.70459,-0.5235 83.5238,1.48191 87.6756,2.12301 8.0244,1.23907 11.2961,2.75333 15.1388,7.00675 2.0795,2.30175 4.2967,6.04263 4.9272,8.31308 1.7533,6.31396 1.4841,33.12968 -0.3773,37.58458 -2.0446,4.89358 -8.1231,8.73412 -19.7167,12.45749 -6.2902,2.02016 -9.6625,3.66527 -9.8997,4.82939 -0.1979,0.97105 5.0505,9.81962 11.6631,19.6635 6.6125,9.84388 11.8405,18.44954 11.6177,19.1237 -0.2485,0.75191 -5.3835,1.57456 -13.2838,2.1281 l -12.8786,0.90237 -5.0153,-5.44262 c -2.7584,-2.99345 -10.193,-12.75875 -16.5213,-21.70069 l -11.506,-16.25806 h -5.3575 -5.3574 l -0.01,12.69508 c 0,6.98229 -0.3187,16.70618 -0.7003,21.60864 l -0.6939,8.91357 -10.91428,-0.14714 c -6.00286,-0.0809 -11.96712,-0.35244 -13.25391,-0.60339 z m 70.40349,-67.75534 c 2.4807,-1.62545 2.7044,-2.43077 2.7044,-9.73478 0,-6.58238 -0.3272,-8.08833 -1.8879,-8.68722 -2.9853,-1.14557 -22.4463,-2.67177 -34.5766,-2.71162 l -11.0745,-0.0364 v 12.04257 12.04256 l 21.0651,-0.57155 c 17.0138,-0.46163 21.5851,-0.91234 23.7695,-2.34358 z"
       id="path41" />
    <path
       style="fill:#0000d4;fill-opacity:0.333333;stroke-width:1.08043"
       d="m 986.43457,464.65466 -9.18367,-0.60904 -0.66821,-6.48259 c -0.36751,-3.56543 -1.05193,-28.726 -1.52092,-55.91237 l -0.85271,-49.42977 15.56654,0.0363 c 26.9986,0.0629 72.6532,1.99375 77.1512,3.26289 4.9286,1.39063 10.5345,6.28532 12.8138,11.18807 2.1198,4.55965 3.1083,20.86916 1.9253,31.76384 -0.7437,6.84931 -1.5333,9.57077 -3.3322,11.48565 -2.316,2.46529 -11.8178,7.14762 -21.9411,10.81228 -2.8227,1.0218 -5.1321,2.53833 -5.1321,3.37007 0,1.63991 5.9517,11.68755 14.0382,23.69918 5.66,8.40741 9.0398,14.5571 8.3689,15.22794 -0.2427,0.24272 -5.989,0.88726 -12.7695,1.43231 l -12.3281,0.99099 -2.9799,-3.42347 c -3.9211,-4.5049 -16.1748,-20.74221 -23.5596,-31.21873 l -5.884,-8.34749 -5.5562,-0.0259 -5.5561,-0.0258 -0.7058,19.17767 c -0.3882,10.54772 -0.936,20.27161 -1.2172,21.60864 -0.5596,2.66038 0.5775,2.56361 -16.67663,1.41937 z m 52.28733,-65.43368 c 5.1674,-0.30169 9.5504,-1.16672 11.1189,-2.19445 2.4109,-1.57973 2.5674,-2.26371 2.2745,-9.94122 -0.3102,-8.13015 -0.3596,-8.25784 -3.5559,-9.18458 -1.7827,-0.5169 -12.3574,-1.22987 -23.4994,-1.58439 l -20.2581,-0.64458 v 12.54467 12.54466 l 12.6951,-0.52106 c 6.9823,-0.28658 16.5335,-0.74515 21.2249,-1.01905 z"
       id="path42" />
    <path
       style="fill:#0000d4;fill-opacity:0.333333;stroke-width:1.08043"
       d="m 980.83391,463.81888 c -2.10729,-0.32209 -3.06827,-1.23733 -3.51689,-3.34952 -0.4942,-2.32673 -2.68182,-84.85488 -2.75023,-103.7524 l -0.017,-4.6876 26.74071,0.69734 c 41.0001,1.06918 64.8919,2.57213 68.1771,4.28876 3.3726,1.76228 7.9652,6.53063 9.9506,10.33148 1.6875,3.23037 2.6917,24.22308 1.5832,33.09525 -1.0507,8.40947 -4.4842,11.64626 -18.6665,17.59725 -8.0136,3.36259 -11.0744,5.16577 -11.0744,6.52422 0,1.03252 2.7505,6.20571 6.1122,11.49596 13.7339,21.61285 15.8505,25.36301 14.8689,26.34469 -0.5491,0.54907 -6.1641,1.33228 -12.4777,1.74047 l -11.4794,0.74216 -6.3848,-8.03456 c -3.5116,-4.419 -10.6734,-13.96755 -15.9152,-21.21898 l -9.5304,-13.18442 h -5.6699 -5.6698 l -0.6888,7.29292 c -0.3788,4.0111 -0.6964,10.93937 -0.7058,15.39616 -0.01,4.45678 -0.3237,10.65576 -0.6984,13.77551 l -0.6813,5.67226 -9.30335,-0.16188 c -5.11681,-0.089 -10.6081,-0.36131 -12.20287,-0.60507 z M 1033.2076,399.815 c 18.3657,-1.25591 19.1333,-1.7561 19.1333,-12.46696 0,-6.79121 -0.3186,-8.21086 -2.0511,-9.13807 -1.1282,-0.60376 -9.0288,-1.36252 -17.5571,-1.68612 -8.5282,-0.3236 -18.3014,-0.81165 -21.7183,-1.08456 l -6.2125,-0.49619 v 12.94862 12.94862 l 7.2929,-0.0402 c 4.0111,-0.0221 13.5119,-0.46541 21.1128,-0.98519 z"
       id="path43" />
    <path
       style="fill:#0000d4;fill-opacity:0.333333;stroke-width:1.08043"
       d="m 984.81393,463.59388 -6.4826,-0.62869 -0.72296,-7.02281 c -0.8124,-7.89168 -3.29991,-102.75984 -2.7099,-103.34985 0.65251,-0.65252 69.84593,1.79676 81.69893,2.89193 18.7519,1.73261 23.0813,6.52129 24.3998,26.98853 0.913,14.17297 -0.5424,23.04011 -4.4514,27.12024 -1.5401,1.60751 -7.8593,5.23715 -14.0427,8.06585 -6.3895,2.92297 -11.2426,5.78962 -11.2426,6.6408 0,2.13606 1.9358,5.63203 11.7996,21.30961 4.8007,7.63036 8.7286,14.49672 8.7286,15.25859 0,1.64084 -2.9399,2.28603 -14.6511,3.21533 l -8.7086,0.69106 -7.7658,-10.08832 c -4.2712,-5.54857 -11.4115,-15.0718 -15.8674,-21.16274 l -8.1017,-11.07443 h -5.7992 -5.7993 l -0.687,5.01274 c -0.3779,2.75701 -0.69,8.2267 -0.6936,12.15486 0,3.92817 -0.3187,11.15323 -0.7003,16.05569 l -0.6939,8.91356 -5.51215,-0.18163 c -3.03167,-0.0999 -8.4293,-0.46454 -11.99472,-0.81032 z m 51.63237,-63.77558 c 6.48,-0.57899 11.6058,-1.61979 13.2353,-2.68744 2.4312,-1.593 2.6593,-2.43233 2.6593,-9.78282 0,-6.82232 -0.3141,-8.20847 -2.074,-9.1503 -1.649,-0.88255 -31.7953,-3.17119 -43.034,-3.26704 -2.3871,-0.0204 -2.431,0.21322 -2.431,12.94445 v 12.96519 l 10.5342,-0.0386 c 5.7939,-0.0212 15.2934,-0.46377 21.1102,-0.98349 z"
       id="path44" />
    <path
       style="fill:#0000d4;fill-opacity:0.333333;stroke-width:1.08043"
       d="m 987.87971,463.80901 c -4.45638,-0.22716 -8.21857,-0.97286 -8.87034,-1.75819 -1.15016,-1.38586 -2.99345,-46.2567 -3.60193,-87.68107 l -0.3174,-21.60865 15.66626,0.31485 c 27.526,0.5532 66.2526,2.43123 72.389,3.51047 6.6293,1.16597 10.2322,3.38342 13.6485,8.40026 2.8598,4.19959 3.7037,9.62346 3.7715,24.23883 0.042,9.10603 -0.3795,12.40038 -2.0798,16.24417 -1.9977,4.51619 -2.9273,5.22384 -14.6741,11.17058 -7.9854,4.04254 -12.5431,6.96667 -12.5461,8.0494 0,0.93525 4.6232,9.41023 10.2796,18.83327 5.8083,9.67614 9.8765,17.54071 9.3472,18.07 -0.5155,0.51546 -5.7122,1.42571 -11.5483,2.02278 l -10.6111,1.0856 -2.4637,-3.02893 c -1.355,-1.6659 -8.4438,-11.14708 -15.7529,-21.06926 l -13.2892,-18.04034 -6.1463,-0.0569 -6.1463,-0.0569 -0.5619,4.59184 c -0.309,2.52551 -0.9466,11.88475 -1.4167,20.79832 l -0.8549,16.20648 -3.24126,0.0789 c -1.78271,0.0434 -6.72363,-0.0986 -10.97983,-0.31553 z m 50.28769,-64.02621 c 4.9807,-0.57263 10.2073,-1.79563 11.6146,-2.71779 2.3122,-1.51496 2.5589,-2.45201 2.5589,-9.71697 0,-6.63151 -0.3401,-8.22237 -1.9413,-9.0793 -1.9127,-1.02362 -29.918,-3.35878 -40.2815,-3.35878 h -5.3162 v 12.96519 12.96519 l 12.1549,-0.008 c 6.6852,-0.005 16.2299,-0.47671 21.2106,-1.04934 z"
       id="path45" />
    <path
       style="fill:#0000d4;fill-opacity:0.333333;stroke-width:1.08043"
       d="m 990.57582,463.50499 c -5.74453,-0.29735 -10.77559,-0.87164 -11.18015,-1.27618 -1.25524,-1.25525 -2.53473,-27.81433 -3.34329,-69.39879 l -0.77548,-39.88306 29.0782,0.73735 c 41.2023,1.04479 59.0407,2.39011 64.6619,4.87661 8.6964,3.84684 11.3456,10.69099 11.3888,29.42311 0.028,12.21471 -1.0896,17.31368 -4.6599,21.25794 -1.2244,1.35259 -7.2323,4.99905 -13.3509,8.10324 -6.994,3.54834 -11.1265,6.27518 -11.1296,7.34393 0,0.93497 3.4455,7.49859 7.6627,14.58583 10.1052,16.98251 12.1387,21.06283 11.0429,22.15861 -0.5018,0.5018 -5.4627,1.42784 -11.0242,2.05786 -8.4116,0.95288 -10.3166,0.88901 -11.33,-0.37988 -0.67,-0.83894 -7.7819,-10.32853 -15.8041,-21.08796 l -14.5858,-19.5626 -6.1266,-0.006 c -7.4048,-0.007 -6.9813,-1.20784 -8.0007,22.68307 -0.3931,9.21068 -1.0216,17.23289 -1.3969,17.82713 -0.4177,0.66147 -4.73236,0.87079 -11.12688,0.5398 z m 48.70848,-63.77126 c 4.4065,-0.57193 9.1469,-1.78361 10.5342,-2.69262 2.2689,-1.48664 2.5224,-2.46084 2.5224,-9.69307 0,-6.62709 -0.3407,-8.22267 -1.9384,-9.07776 -2.1906,-1.17237 -27.098,-3.36032 -38.2535,-3.36032 h -7.3471 v 12.96519 12.96519 l 13.2353,-0.0334 c 7.2794,-0.0183 16.8406,-0.50131 21.2471,-1.07325 z"
       id="path46" />
    <path
       style="fill:#0000d4;fill-opacity:0.333333;stroke-width:1.08043"
       d="m 1045.028,459.37124 c -2.2774,-2.88113 -9.4227,-12.36729 -15.8784,-21.08034 l -11.7377,-15.84192 h -6.1879 c -7.4588,0 -7.0765,-0.92866 -8.0055,19.44778 -0.3657,8.02221 -0.919,16.21185 -1.2295,18.19921 l -0.5646,3.61337 -10.14374,-0.37207 c -5.57909,-0.20465 -10.65404,-0.88314 -11.27767,-1.50775 -1.50335,-1.50573 -3.0251,-29.67037 -3.95201,-73.14405 l -0.75444,-35.38415 11.7815,0.0111 c 16.48416,0.0156 58.39426,1.95487 70.57826,3.26589 12.2984,1.32333 16.2298,3.42515 19.7136,10.53924 2.2401,4.57431 2.4947,6.62731 2.5076,20.21736 0.012,12.40058 -0.327,15.75063 -1.8807,18.5924 -1.8506,3.38473 -9.9572,8.81145 -21.6042,14.46229 -2.8943,1.40425 -5.1321,3.2315 -5.1321,4.19062 0,0.93538 3.9401,8.49606 8.7557,16.80152 4.8156,8.30546 9.1636,16.15341 9.6622,17.43988 1.1098,2.86358 0.2785,3.2511 -8.8912,4.14468 -3.7541,0.36585 -7.904,0.88525 -9.222,1.15426 -1.859,0.37938 -3.3252,-0.68588 -6.5372,-4.74934 z m -5.1488,-59.66139 c 11.4474,-1.65436 12.4617,-2.66055 12.4617,-12.36181 0,-6.56859 -0.348,-8.22657 -1.9012,-9.05784 -2.2789,-1.21963 -26.3082,-3.38024 -37.5934,-3.38024 h -8.0444 v 12.96519 12.96519 l 13.7755,-0.0214 c 7.5766,-0.0118 17.1624,-0.51086 21.3018,-1.10908 z"
       id="path47" />
    <path
       style="fill:#0000d4;fill-opacity:0.333333;stroke-width:1.08043"
       d="m 566.68667,463.85758 c -7.66253,-0.95622 -7.89203,-1.13622 -9.061,-7.10631 -0.61071,-3.11896 -1.43035,-8.46646 -1.82144,-11.88332 l -0.71108,-6.21249 h -25.1188 -25.11881 l -0.68707,5.01274 c -0.37789,2.75701 -0.68708,7.57919 -0.68708,10.71596 0,8.92657 -0.19466,9.12296 -9.02916,9.10935 -4.24464,-0.007 -9.56872,-0.31779 -11.83129,-0.69166 l -4.11375,-0.67978 0.33224,-46.67138 0.33224,-46.67139 2.94665,-4.25025 c 4.84145,-6.98331 7.18461,-7.79926 25.79996,-8.98421 9.14735,-0.58227 27.08472,-1.33543 39.86083,-1.6737 12.77611,-0.33827 26.56986,-0.88318 30.65278,-1.21093 l 7.42348,-0.5959 -0.6802,33.8418 c -0.37411,18.61298 -0.97567,43.93032 -1.33681,56.26076 l -0.6566,22.41896 -6.6269,-0.16188 c -3.64479,-0.089 -8.08547,-0.3439 -9.86819,-0.56637 z M 554.2617,395.97839 v -18.90756 h -23.64349 c -23.60586,0 -23.64453,0.004 -24.29497,2.43097 -0.35831,1.33704 -0.65812,9.84544 -0.66623,18.90756 l -0.0147,16.47659 h 24.30972 24.30972 z"
       id="path48" />
    <path
       style="fill:#0000d4;fill-opacity:0.333333;stroke-width:1.08043"
       d="m 567.22689,463.6053 c -3.26831,-0.36457 -6.51741,-1.03085 -7.22023,-1.48065 -1.30845,-0.83738 -2.91943,-7.7198 -4.16576,-17.79692 l -0.70153,-5.67227 h -25.15372 -25.15372 l -0.67527,3.37635 c -0.3714,1.857 -0.67527,6.50781 -0.67527,10.33514 0,9.79822 -0.94941,11.1406 -7.87114,11.12906 -3.09885,-0.005 -8.25339,-0.32388 -11.45455,-0.70824 l -5.82028,-0.69885 0.53819,-46.80219 0.5382,-46.80219 2.92306,-3.83233 c 6.20593,-8.1364 7.75041,-8.41569 56.26057,-10.1735 17.82713,-0.64598 35.75633,-1.42737 39.84268,-1.73643 l 7.4297,-0.56191 -0.66793,25.68053 c -0.36736,14.12428 -0.97208,39.05086 -1.34382,55.3924 -0.37174,16.34154 -0.89071,30.07653 -1.15327,30.52221 -0.53055,0.90056 -6.4612,0.83534 -15.47591,-0.17021 z M 554.2617,395.97839 v -18.90756 h -23.65391 c -20.57259,0 -23.73934,0.22263 -24.30972,1.70901 -0.3607,0.93996 -0.65581,9.44836 -0.65581,18.90756 v 17.19855 h 24.30972 24.30972 z"
       id="path49" />
    <path
       style="fill:#0000d4;fill-opacity:0.333333;stroke-width:1.08043"
       d="m 567.38597,463.5118 c -3.9545,-0.44847 -7.26248,-1.41619 -7.80449,-2.28315 -1.00578,-1.60877 -2.5868,-9.07536 -3.69308,-17.44113 l -0.67867,-5.13206 h -25.19794 -25.19794 l -0.65148,2.43097 c -0.35831,1.33704 -0.65811,5.16582 -0.66622,8.50841 -0.0339,13.94887 -0.84948,14.63661 -15.87409,13.38506 l -9.31293,-0.77576 0.7733,-47.135 0.77331,-47.13499 3.72111,-4.54113 c 3.07826,-3.75661 4.69905,-4.73894 9.38186,-5.68615 6.1793,-1.24993 33.17962,-2.86454 64.54429,-3.85974 10.9934,-0.34882 21.88172,-0.91207 24.19627,-1.25167 l 4.20827,-0.61744 -0.6887,22.00019 c -0.37879,12.1001 -0.95451,35.85672 -1.27938,52.7925 -0.32488,16.93577 -0.83678,32.37245 -1.13756,34.30372 -0.61366,3.94025 -1.26104,4.0426 -15.41593,2.43737 z M 554.2617,395.97839 v -18.90756 h -23.65391 c -20.57259,0 -23.73934,0.22263 -24.30972,1.70901 -0.3607,0.93996 -0.65581,9.44836 -0.65581,18.90756 v 17.19855 h 24.30972 24.30972 z"
       id="path50" />
  </g>
</svg>
